<svg xmlns="http://www.w3.org/2000/svg" xmlns:xlink="http://www.w3.org/1999/xlink" width="1250" height="1250" viewBox="0 0 1250 1250"><defs><linearGradient id="a"><stop offset="0" stop-color="#d64229"/><stop offset="1" stop-color="#e68429"/></linearGradient><linearGradient xlink:href="#a" id="c" x1="638.427" y1="826.812" x2="638.427" y2="463.772" gradientUnits="userSpaceOnUse"/><linearGradient xlink:href="#a" id="b" x1="1132.95" y1="936.384" x2="1132.95" y2="835.744" gradientUnits="userSpaceOnUse"/><linearGradient xlink:href="#a" id="d" x1="130.831" y1="934.513" x2="130.831" y2="836.741" gradientUnits="userSpaceOnUse"/></defs><path d="M1043.102 934.508c-12.443-6.35-15.406-21.36-17.197-33.947-1.382-14.055-2.103-30.434 8.205-41.557 11.884-13.07 29.174-18.768 45.706-23.278 34.696-.104 69.42-1.382 104.093.28 8.85.472 18.26 1.452 25.222 7.555 7.67 5.476 14.375 14.764 11.545 24.626-2.814 8.905-14.06 7.25-21.42 7.592-14.415-.365-29.06-1.79-43.2 1.937-35.164 7.26-68.18 24.82-94.138 49.582-3.9 6.424-11.28 11.5-18.818 7.21z" fill="url(#b)"/><path d="M319.125 463.75c-9.672 6.918-19.75 14.92-26.473 23.303-4.98 6.295-10.568 17.512-9.547 19.164.322.52 3.83 1.59 7.8 2.377 14.76 2.927 25.95 10.184 30.85 20.006 3.553 7.123 6.363 29.198 5.15 40.46-.88 8.15-5.247 25.248-12.69 49.69-6.804 22.342-7.9 30.99-9.277 73.125-.697 21.313-1.81 41.45-2.477 44.748-2.842 14.084-.064 22.19 8.413 24.543 8.76 2.433 32.49 1.37 91.945-4.115 51.322-4.735 61.185-5.328 75.307-4.523 16.96.967 31.456 4.63 44.36 11.215 9.03 4.606 19.035 15.14 24.495 25.785 17.72 26.612 56.317 38.162 79.895 37.545 28.247-1.422 64.87-17.06 76.145-37.545 5.46-10.646 15.466-21.18 24.494-25.785 12.905-6.584 27.4-10.248 44.36-11.215 14.123-.805 23.986-.212 75.308 4.524 59.456 5.487 83.184 6.55 91.945 4.116 3.193-.887 5.55-2.626 7.184-5.305 2.77-4.542 2.93-7.357 1.208-21.42-.678-5.536-1.8-26.096-2.49-45.69-.693-19.594-1.885-39.28-2.65-43.75-.767-4.47-5.25-21.665-9.962-38.213-9.703-34.065-11.1-43.943-8.67-61.25 2.522-17.95 8.003-26.116 21.88-32.594 3.437-1.604 9.498-3.562 13.468-4.35 3.97-.787 7.48-1.856 7.8-2.376 1.022-1.652-4.566-12.87-9.546-19.164-8.863-10.23-16.365-16.038-26.473-23.303H625zm75.986 68.75c7.766 0 8.34.213 12.76 4.74 4.328 4.43 4.63 5.245 4.63 12.457 0 6.85-.436 8.213-3.88 12.135-3.792 4.32-4.087 4.418-13.25 4.418-8.99 0-9.543-.173-13.62-4.25-3.948-3.948-4.25-4.82-4.25-12.246 0-7.61.23-8.22 4.74-12.625 4.484-4.38 5.18-4.63 12.87-4.63zm76.78 0c8.853 0 9.207.12 12.98 4.418 3.523 4.01 3.88 5.2 3.88 12.88 0 7.93-.258 8.712-4.12 12.456-3.85 3.73-4.712 3.996-12.982 3.996-8.748 0-8.914-.062-13.378-5.004-4.04-4.47-4.52-5.736-4.52-11.87 0-6.136.48-7.402 4.52-11.872 4.486-4.966 4.59-5.004 13.62-5.004zm37.72 0c8.602 0 9.004.14 12.76 4.418 3.48 3.962 3.88 5.25 3.88 12.457 0 7.208-.4 8.495-3.88 12.457-3.765 4.29-4.142 4.418-12.87 4.418-8.76 0-9.11-.122-13.62-4.74-4.3-4.402-4.63-5.276-4.63-12.246 0-7.042.293-7.793 4.74-12.135 4.567-4.46 5.066-4.63 13.62-4.63zm37.392 0c8.265 0 8.98.23 12.752 4.12 3.72 3.84 3.996 4.725 3.996 12.882 0 8.265-.23 8.98-4.12 12.752-3.84 3.72-4.725 3.996-12.882 3.996-8.265 0-8.98-.23-12.752-4.12-3.72-3.84-3.996-4.725-3.996-12.882 0-8.265.23-8.98 4.12-12.752 3.84-3.72 4.725-3.996 12.882-3.996zm78.11 0c7.764 0 8.34.213 12.76 4.74 4.347 4.453 4.628 5.218 4.628 12.625 0 7.3-.315 8.2-4.25 12.135-4.046 4.046-4.68 4.25-13.25 4.25s-9.204-.204-13.25-4.25c-3.948-3.948-4.25-4.82-4.25-12.246 0-7.61.23-8.22 4.74-12.625 4.484-4.38 5.18-4.63 12.87-4.63zm38.255 0c8.593 0 8.997.14 12.754 4.418 3.523 4.01 3.88 5.2 3.88 12.88 0 7.93-.258 8.712-4.12 12.456-3.84 3.72-4.725 3.996-12.882 3.996-8.265 0-8.98-.23-12.752-4.12-3.72-3.84-3.996-4.725-3.996-12.882 0-8.265.23-8.98 4.12-12.752 3.85-3.73 4.71-3.996 12.997-3.996zm36.135 0c8.265 0 8.98.23 12.752 4.12 3.72 3.84 3.996 4.725 3.996 12.882 0 8.265-.23 8.98-4.12 12.752-3.84 3.72-4.725 3.996-12.882 3.996-8.265 0-8.98-.23-12.752-4.12-3.72-3.84-3.996-4.725-3.996-12.882 0-8.265.23-8.98 4.12-12.752 3.84-3.72 4.725-3.996 12.882-3.996zm40.115 0c8.593 0 8.997.14 12.754 4.418 3.523 4.01 3.88 5.2 3.88 12.88 0 7.93-.258 8.712-4.12 12.456-3.84 3.72-4.725 3.996-12.882 3.996-8.265 0-8.98-.23-12.752-4.12-3.72-3.84-3.996-4.725-3.996-12.882 0-8.265.23-8.98 4.12-12.752 3.85-3.73 4.71-3.996 12.997-3.996zm74.885 0c8.265 0 8.98.23 12.752 4.12 3.72 3.84 3.996 4.725 3.996 12.882 0 8.265-.23 8.98-4.12 12.752-3.84 3.72-4.725 3.996-12.882 3.996-8.265 0-8.98-.23-12.752-4.12-3.72-3.84-3.996-4.725-3.996-12.882 0-8.265.23-8.98 4.12-12.752 3.84-3.72 4.725-3.996 12.882-3.996zm40 0c8.265 0 8.98.23 12.752 4.12 3.72 3.84 3.996 4.725 3.996 12.882 0 8.265-.23 8.98-4.12 12.752-3.84 3.72-4.725 3.996-12.882 3.996-8.265 0-8.98-.23-12.752-4.12-3.72-3.84-3.996-4.725-3.996-12.882 0-8.265.23-8.98 4.12-12.752 3.84-3.72 4.725-3.996 12.882-3.996zm-460 77.5c8.265 0 8.98.23 12.752 4.12 3.698 3.817 3.996 4.755 3.996 12.626 0 8.003-.25 8.754-4.25 12.754-4.013 4.013-4.73 4.25-12.88 4.25-8.12 0-8.864-.242-12.624-4.12-3.72-3.84-3.996-4.725-3.996-12.882 0-8.265.23-8.98 4.12-12.752 3.84-3.72 4.725-3.996 12.882-3.996zm37.883 0c9.247 0 9.78.16 13.62 4.12 3.66 3.778 3.995 4.804 3.995 12.25 0 7.756-.214 8.332-4.74 12.75-4.484 4.38-5.18 4.63-12.87 4.63-7.766 0-8.34-.213-12.76-4.74-4.328-4.43-4.63-5.245-4.63-12.457 0-6.85.436-8.213 3.88-12.135 3.81-4.34 4.05-4.418 13.505-4.418zm38.75 0c9.247 0 9.78.16 13.62 4.12 3.66 3.778 3.995 4.804 3.995 12.25 0 7.756-.214 8.332-4.74 12.75-4.497 4.392-5.165 4.63-12.98 4.63-8.028 0-8.356-.13-12.76-5.004-4.13-4.57-4.52-5.65-4.52-12.457 0-6.555.467-7.987 3.88-11.872 3.81-4.34 4.05-4.418 13.505-4.418zm37.754 0c8.765 0 9.628.247 12.917 3.68 2.928 3.056 3.623 5.042 4.105 11.736.568 7.875.476 8.174-4.06 13.195-4.555 5.043-4.8 5.14-12.995 5.14-8.02 0-8.533-.188-12.978-4.74-4.38-4.485-4.63-5.18-4.63-12.88 0-7.565.29-8.42 4.12-12.134 3.894-3.773 4.646-3.996 13.52-3.996zm38.6 0c8.332 0 9.595.333 12.754 3.36 3.24 3.104 3.506 4.08 3.506 12.878 0 9.13-.17 9.685-4.12 13.516-3.778 3.66-4.804 3.996-12.25 3.996-7.756 0-8.332-.214-12.75-4.74-4.38-4.485-4.63-5.18-4.63-12.88 0-7.565.29-8.42 4.12-12.134 3.883-3.762 4.663-3.996 13.37-3.996zm37.395 0c9.247 0 9.78.16 13.62 4.12 3.66 3.778 3.995 4.804 3.995 12.25 0 7.756-.214 8.332-4.74 12.75-4.484 4.38-5.18 4.63-12.87 4.63-7.766 0-8.34-.213-12.76-4.74-4.328-4.43-4.63-5.245-4.63-12.457 0-6.85.436-8.213 3.88-12.135 3.81-4.34 4.05-4.418 13.505-4.418zm38.367 0c8.265 0 8.98.23 12.752 4.12 3.72 3.84 3.996 4.725 3.996 12.882 0 8.265-.23 8.98-4.12 12.752-3.84 3.72-4.725 3.996-12.882 3.996-8.265 0-8.98-.23-12.752-4.12-3.72-3.84-3.996-4.725-3.996-12.882 0-8.265.23-8.98 4.12-12.752 3.84-3.72 4.725-3.996 12.882-3.996zm38.133 0c8.962 0 9.55.18 13.37 4.12 3.66 3.778 3.995 4.804 3.995 12.25 0 7.756-.214 8.332-4.74 12.75-4.485 4.38-5.18 4.63-12.88 4.63-7.565 0-8.42-.29-12.134-4.12-3.773-3.894-3.996-4.646-3.996-13.52 0-8.66.274-9.654 3.506-12.75 3.168-3.035 4.41-3.36 12.88-3.36zm37.5 0c8.962 0 9.55.18 13.37 4.12 3.66 3.778 3.995 4.804 3.995 12.25 0 7.756-.214 8.332-4.74 12.75-4.485 4.38-5.18 4.63-12.88 4.63-7.565 0-8.42-.29-12.134-4.12-3.773-3.894-3.996-4.646-3.996-13.52 0-8.66.274-9.654 3.506-12.75 3.168-3.035 4.41-3.36 12.88-3.36zm37.5 0c8.962 0 9.55.18 13.37 4.12 3.66 3.778 3.995 4.804 3.995 12.25 0 7.756-.214 8.332-4.74 12.75-4.485 4.38-5.18 4.63-12.88 4.63-7.565 0-8.42-.29-12.134-4.12-3.773-3.894-3.996-4.646-3.996-13.52 0-8.66.274-9.654 3.506-12.75 3.168-3.035 4.41-3.36 12.88-3.36zm39.367 0c8.265 0 8.98.23 12.752 4.12 3.698 3.817 3.996 4.755 3.996 12.626 0 8.003-.25 8.754-4.25 12.754-4.013 4.013-4.73 4.25-12.88 4.25-8.12 0-8.864-.242-12.624-4.12-3.72-3.84-3.996-4.725-3.996-12.882 0-8.265.23-8.98 4.12-12.752 3.84-3.72 4.725-3.996 12.882-3.996zm38.75 0c8.265 0 8.98.23 12.752 4.12 3.698 3.817 3.996 4.755 3.996 12.626 0 8.003-.25 8.754-4.25 12.754-4.013 4.013-4.73 4.25-12.88 4.25-8.12 0-8.864-.242-12.624-4.12-3.72-3.84-3.996-4.725-3.996-12.882 0-8.265.23-8.98 4.12-12.752 3.84-3.72 4.725-3.996 12.882-3.996zm39.236 0c9.13 0 9.685.17 13.516 4.12 3.66 3.778 3.996 4.804 3.996 12.25 0 7.756-.214 8.332-4.74 12.75-4.497 4.392-5.165 4.63-12.98 4.63-8.068 0-8.336-.108-12.895-5.154-4.52-5.002-4.642-5.39-4.15-13.104.425-6.686 1.08-8.548 4.12-11.72 3.4-3.55 4.174-3.772 13.133-3.772zm-459.11 76.25c8.122 0 8.866.242 12.626 4.12 3.72 3.84 3.996 4.725 3.996 12.882 0 8.265-.23 8.98-4.12 12.752-3.84 3.72-4.725 3.996-12.882 3.996-8.265 0-8.98-.23-12.752-4.12-3.698-3.817-3.996-4.755-3.996-12.626 0-8.003.25-8.754 4.25-12.754 4.013-4.013 4.73-4.25 12.88-4.25zm38.624 0c8.265 0 8.98.23 12.752 4.12 3.72 3.84 3.996 4.725 3.996 12.882 0 8.265-.23 8.98-4.12 12.752-3.84 3.72-4.725 3.996-12.882 3.996-8.265 0-8.98-.23-12.752-4.12-3.72-3.84-3.996-4.725-3.996-12.882 0-8.265.23-8.98 4.12-12.752 3.84-3.72 4.725-3.996 12.882-3.996zm38.508 0c8.54 0 9.203.21 12.994 4.12 3.72 3.84 3.996 4.725 3.996 12.882 0 8.265-.23 8.98-4.12 12.752-3.84 3.72-4.725 3.996-12.882 3.996-8.265 0-8.98-.23-12.752-4.12-3.682-3.8-3.996-4.777-3.996-12.458 0-7.54.37-8.757 3.88-12.754 3.765-4.29 4.142-4.418 12.88-4.418zm65.234 0H709.51l3.994 4.12c3.72 3.84 3.996 4.725 3.996 12.882 0 8.265-.23 8.98-4.12 12.752L709.255 720H536.74l-3.994-4.12c-3.72-3.84-3.996-4.725-3.996-12.882 0-8.265.23-8.98 4.12-12.752zm238.758 0c8.265 0 8.98.23 12.752 4.12 3.72 3.84 3.996 4.725 3.996 12.882 0 8.265-.23 8.98-4.12 12.752-3.84 3.72-4.725 3.996-12.882 3.996-8.265 0-8.98-.23-12.752-4.12-3.72-3.84-3.996-4.725-3.996-12.882 0-8.265.23-8.98 4.12-12.752 3.84-3.72 4.725-3.996 12.882-3.996zm38.865 0c8.593 0 8.997.14 12.754 4.418 3.523 4.01 3.88 5.2 3.88 12.88 0 7.93-.258 8.712-4.12 12.456-3.84 3.72-4.725 3.996-12.882 3.996-8.265 0-8.98-.23-12.752-4.12-3.72-3.84-3.996-4.725-3.996-12.882 0-8.265.23-8.98 4.12-12.752 3.85-3.73 4.71-3.996 12.997-3.996zm38.635 0c8.265 0 8.98.23 12.752 4.12 3.72 3.84 3.996 4.725 3.996 12.882 0 8.265-.23 8.98-4.12 12.752-3.84 3.72-4.725 3.996-12.882 3.996-8.265 0-8.98-.23-12.752-4.12-3.72-3.84-3.996-4.725-3.996-12.882 0-8.265.23-8.98 4.12-12.752 3.84-3.72 4.725-3.996 12.882-3.996z" fill="url(#c)"/><path d="M206.907 934.508c12.443-6.35 15.406-21.36 17.197-33.947 1.382-14.055 2.103-30.434-8.205-41.557-11.885-13.07-29.175-18.768-45.707-23.278-34.696-.104-69.42-1.382-104.093.28-8.85.472-18.26 1.452-25.222 7.555-7.672 5.476-14.376 14.764-11.546 24.626 2.814 8.905 14.06 7.25 21.42 7.592 14.416-.365 29.06-1.79 43.2 1.937 35.164 7.26 68.18 24.82 94.138 49.582 3.9 6.424 11.28 11.5 18.817 7.21z" fill="url(#d)"/><path d="M593.125 1084.23c-44.22-2.836-76.816-8.824-119.375-21.928-46.4-14.287-98.233-45.03-142.61-84.58-34.593-30.835-66.672-66.99-90.335-101.82-7.768-11.434-8.305-12.67-8.305-19.145 0-3.807.627-8.15 1.394-9.65 1.382-2.708 57.368-58.805 57.982-58.1.176.203 4.954 7.962 10.617 17.243 39.846 65.3 79.8 110.752 121.022 137.673 15.972 10.43 27.554 15.05 43.193 17.225 13.12 1.825 18.905 1.705 27.717-.576 12.08-3.128 18.164-6.714 27.714-16.338 7.035-7.09 10.384-11.817 15.262-21.54 11.082-22.083 15.017-44.148 17.44-96.74.498-10.82 1.556-25.266 1.556-25.266 13.52 13.543 49.485 26.39 68.458 26.39 18.974 0 48.662-10.504 68.636-25.984 0 0 1.057 14.04 1.556 24.86 2.422 52.592 6.468 74.657 17.55 96.74 4.878 9.723 8.227 14.45 15.263 21.54 9.55 9.624 15.634 13.21 27.715 16.338 8.812 2.28 14.596 2.4 27.717.576 15.64-2.175 27.22-6.794 43.193-17.225 40.85-26.68 80.537-71.592 119.443-135.173 6.52-10.656 12.004-19.54 12.185-19.742.628-.7 56.604 55.378 57.993 58.098.767 1.5 1.394 5.844 1.394 9.65 0 6.475-.537 7.712-8.305 19.146-23.663 34.83-55.742 70.985-90.336 101.82-44.603 39.752-96.264 70.336-143.06 84.693-43.858 13.455-74.544 18.937-122.675 21.918-17.187 1.065-31.812 1.856-32.5 1.76-.687-.098-13.062-.936-27.5-1.862zM189.233 569.76c-5.197-3.177-7.126-5.394-10.313-11.857-3.45-6.995-3.92-9.208-3.92-18.426 0-31.804 24.32-97.167 55.882-150.193 19.106-32.098 55.414-76.56 82.868-101.475 37.017-33.596 75.953-60.337 116.25-79.84 41.076-19.88 81.074-31.56 128.75-37.595 22.906-2.9 29.936-3.244 66.25-3.244s43.344.345 66.25 3.245c90.767 11.49 165.343 46.872 242.075 114.85 28.7 25.426 65.67 70.252 85.707 103.913 31.65 53.178 55.968 118.496 55.968 150.34 0 9.22-.47 11.43-3.926 18.437-3.25 6.592-5.06 8.64-10.508 11.9-5.4 3.228-7.91 3.935-13.972 3.935-4.065 0-10.24-.846-13.72-1.88-7.855-2.332-11.608-6.688-24.86-28.857-11.083-18.54-18.99-27.056-30.412-32.765-10.314-5.153-10.9-5.698-14.634-13.59-3.478-7.352-15.298-20.09-24.546-26.453-6.26-4.308-7.163-6.37-3.956-9.03 4.838-4.016 7.383-11.538 7.38-21.82-.003-9.228-.426-10.9-5.365-21.194-11.49-23.948-37.462-52.982-71.48-79.913-40.207-31.83-77.674-49.74-135.933-64.987-29.602-7.747-32.525-8.266-67.505-11.982L625 257.394l-36.563 3.884c-34.98 3.716-37.902 4.235-67.504 11.982C462.7 288.5 425.213 306.415 385 338.227c-33.92 26.832-60.817 56.982-71.846 80.534-4.487 9.582-4.972 11.588-4.987 20.615-.016 10.264 2.524 17.78 7.367 21.8 3.33 2.762 2.282 4.497-6.785 11.24-9.723 7.228-19.21 18.077-22.5 25.728-2.61 6.07-3.73 7.047-13.852 12.105-11.423 5.71-19.33 14.226-30.412 32.765-13.252 22.17-17.005 26.525-24.86 28.857-3.48 1.034-9.743 1.86-13.915 1.838-6.254-.035-8.706-.727-13.977-3.95z" fill="#737b8c"/></svg>